<svg viewBox="0 0 270 43" xmlns="http://www.w3.org/2000/svg" data-logo="logo">
        <g transform="translate(0, 1) rotate(0)" id="logogram" style="opacity: 1; transition: 0.2s;"><path fill="#7F57F1" d="M9.00537 3.67782C7.57471 4.67818 6.28101 5.86093 5.15796 7.19235C9.74726 6.76628 15.5778 7.462 22.347 10.8466C29.5756 14.4608 35.3964 14.583 39.4474 13.8016C39.0798 12.6887 38.617 11.6191 38.0689 10.6023C33.4316 11.0914 27.4866 10.444 20.5582 6.97993C16.1586 4.78013 12.2804 3.87396 9.00537 3.67782ZM35.36 6.7466C31.6979 2.65495 26.376 0.0799561 20.4526 0.0799561C18.7131 0.0799561 17.0253 0.302063 15.4163 0.719436C17.5955 1.31404 19.9105 2.18394 22.347 3.40222C27.4196 5.93848 31.799 6.75511 35.36 6.7466ZM40.3135 17.708C35.4195 18.6744 28.6614 18.4759 20.5582 14.4243C12.9826 10.6365 6.95307 10.6842 2.88654 11.5879C2.67664 11.6345 2.47168 11.6835 2.27167 11.7345C1.73926 12.8924 1.31427 14.11 1.00934 15.3744C1.33502 15.2874 1.67157 15.2047 2.0188 15.1275C6.95221 14.0312 13.9227 14.0788 22.347 18.291C29.9227 22.0788 35.9522 22.0311 40.0188 21.1274C40.1581 21.0965 40.2954 21.0645 40.4304 21.0315C40.4452 20.7162 40.4526 20.3989 40.4526 20.0799C40.4526 19.2774 40.4054 18.4859 40.3135 17.708ZM39.7774 25.2522C34.9309 26.0995 28.3696 25.7743 20.5582 21.8687C12.9826 18.0809 6.95307 18.1286 2.88654 19.0323C1.98389 19.2328 1.17188 19.4771 0.455567 19.735C0.453614 19.8497 0.452637 19.9647 0.452637 20.0799C0.452637 31.1256 9.40693 40.0799 20.4526 40.0799C29.7097 40.0799 37.4979 33.7908 39.7774 25.2522Z" clip-rule="evenodd" fill-rule="evenodd"></path></g>
        <g transform="translate(47, 1)" id="logotype" style="opacity: 1; transition: 0.2s;"><path d="M13.52 34L8.31 34L8.31 8.54L18.24 8.54Q21.14 8.54 23.18 9.64Q25.21 10.74 26.28 12.68Q27.35 14.62 27.35 17.13L27.35 17.13Q27.35 19.66 26.26 21.58Q25.17 23.51 23.12 24.59Q21.06 25.68 18.12 25.68L18.12 25.68L11.73 25.68L11.73 21.47L17.28 21.47Q18.89 21.47 19.92 20.92Q20.95 20.36 21.46 19.39Q21.96 18.41 21.96 17.13L21.96 17.13Q21.96 15.85 21.46 14.88Q20.95 13.90 19.91 13.37Q18.87 12.84 17.26 12.84L17.26 12.84L13.52 12.84L13.52 34ZM33.72 34L28.59 34L28.59 14.89L33.55 14.89L33.55 18.23L33.75 18.23Q34.28 16.45 35.52 15.54Q36.76 14.64 38.37 14.64L38.37 14.64Q38.76 14.64 39.21 14.68Q39.66 14.72 40.02 14.81L40.02 14.81L40.02 19.39Q39.68 19.27 39.03 19.20Q38.38 19.13 37.80 19.13L37.80 19.13Q36.64 19.13 35.70 19.64Q34.76 20.14 34.24 21.04Q33.72 21.93 33.72 23.13L33.72 23.13L33.72 34ZM49.11 34.38L49.11 34.38Q46.24 34.38 44.14 33.14Q42.04 31.90 40.90 29.68Q39.77 27.47 39.77 24.53L39.77 24.53Q39.77 21.56 40.90 19.35Q42.04 17.13 44.14 15.89Q46.24 14.65 49.11 14.65L49.11 14.65Q52.00 14.65 54.10 15.89Q56.19 17.13 57.33 19.35Q58.46 21.56 58.46 24.53L58.46 24.53Q58.46 27.47 57.33 29.68Q56.19 31.90 54.10 33.14Q52.00 34.38 49.11 34.38ZM49.11 30.34L49.11 30.34Q50.48 30.34 51.40 29.58Q52.33 28.82 52.79 27.50Q53.25 26.17 53.25 24.52L53.25 24.52Q53.25 22.82 52.79 21.51Q52.33 20.19 51.40 19.44Q50.48 18.69 49.11 18.69L49.11 18.69Q47.75 18.69 46.83 19.44Q45.92 20.19 45.46 21.51Q44.99 22.82 44.99 24.52L44.99 24.52Q44.99 26.17 45.46 27.50Q45.92 28.82 46.83 29.58Q47.75 30.34 49.11 30.34ZM59.74 34.91L59.74 14.89L64.89 14.89L64.89 34.97Q64.89 37.16 64.03 38.52Q63.18 39.88 61.58 40.51Q59.98 41.14 57.76 41.14L57.76 41.14L56.72 41.14L56.72 37.11L57.40 37.11Q58.70 37.11 59.22 36.55Q59.74 36.00 59.74 34.91L59.74 34.91ZM62.32 12.40L62.32 12.40Q61.16 12.40 60.34 11.63Q59.52 10.86 59.52 9.77L59.52 9.77Q59.52 8.67 60.34 7.90Q61.16 7.13 62.32 7.13L62.32 7.13Q63.48 7.13 64.31 7.90Q65.14 8.66 65.14 9.77L65.14 9.77Q65.14 10.86 64.31 11.63Q63.48 12.40 62.32 12.40ZM75.60 34.38L75.60 34.38Q72.68 34.38 70.56 33.18Q68.44 31.98 67.30 29.78Q66.17 27.57 66.17 24.55L66.17 24.55Q66.17 21.59 67.29 19.37Q68.42 17.15 70.49 15.90Q72.56 14.65 75.34 14.65L75.34 14.65Q77.22 14.65 78.85 15.25Q80.47 15.85 81.70 17.06Q82.93 18.26 83.62 20.07Q84.31 21.88 84.31 24.34L84.31 24.34L84.31 25.78L68.27 25.78L68.27 22.57L81.80 22.57L79.41 23.42Q79.41 21.93 78.96 20.83Q78.50 19.73 77.61 19.12Q76.71 18.52 75.38 18.52L75.38 18.52Q74.06 18.52 73.13 19.13Q72.20 19.75 71.72 20.80Q71.24 21.85 71.24 23.20L71.24 23.20L71.24 25.47Q71.24 27.13 71.80 28.26Q72.35 29.39 73.35 29.95Q74.35 30.51 75.68 30.51L75.68 30.51Q76.59 30.51 77.32 30.26Q78.06 30.00 78.58 29.50Q79.10 28.99 79.38 28.26L79.38 28.26L84.02 29.13Q83.56 30.70 82.42 31.89Q81.27 33.08 79.56 33.73Q77.84 34.38 75.60 34.38ZM94.09 34.38L94.09 34.38Q91.20 34.38 89.11 33.14Q87.01 31.90 85.88 29.68Q84.74 27.47 84.74 24.53L84.74 24.53Q84.74 21.56 85.88 19.35Q87.01 17.13 89.11 15.89Q91.20 14.65 94.09 14.65L94.09 14.65Q95.78 14.65 97.22 15.10Q98.65 15.54 99.76 16.36Q100.87 17.18 101.59 18.36Q102.31 19.54 102.58 21.01L102.58 21.01L97.81 21.90Q97.66 21.15 97.33 20.56Q97.01 19.97 96.55 19.55Q96.09 19.13 95.48 18.91Q94.87 18.69 94.14 18.69L94.14 18.69Q92.77 18.69 91.84 19.42Q90.91 20.16 90.44 21.47Q89.97 22.79 89.97 24.52L89.97 24.52Q89.97 26.22 90.44 27.53Q90.91 28.84 91.84 29.59Q92.77 30.34 94.14 30.34L94.14 30.34Q94.87 30.34 95.49 30.11Q96.10 29.88 96.58 29.45Q97.06 29.01 97.39 28.39Q97.71 27.78 97.85 27.01L97.85 27.01L102.62 27.88Q102.34 29.40 101.62 30.59Q100.91 31.78 99.80 32.63Q98.69 33.49 97.24 33.93Q95.80 34.38 94.09 34.38ZM102.02 14.89L113.35 14.89L113.35 18.81L102.02 18.81L102.02 14.89ZM104.65 28.86L104.65 10.35L109.77 10.35L109.77 28.41Q109.77 29.32 110.18 29.75Q110.58 30.19 111.52 30.19L111.52 30.19Q111.81 30.19 112.34 30.11Q112.87 30.04 113.14 29.97L113.14 29.97L113.88 33.81Q113.02 34.07 112.18 34.17Q111.33 34.27 110.56 34.27L110.56 34.27Q107.69 34.27 106.17 32.87Q104.65 31.47 104.65 28.86L104.65 28.86ZM123.85 34.38L123.85 34.38Q120.80 34.38 118.53 33.44Q116.27 32.50 115.00 30.65Q113.74 28.80 113.67 26.10L113.67 26.10L118.74 26.10Q118.85 27.39 119.51 28.25Q120.18 29.11 121.29 29.54Q122.40 29.97 123.80 29.97L123.80 29.97Q125.20 29.97 126.24 29.57Q127.27 29.16 127.85 28.43Q128.43 27.69 128.43 26.72L128.43 26.72Q128.43 25.85 127.91 25.26Q127.39 24.67 126.42 24.24Q125.44 23.81 124.04 23.49L124.04 23.49L121.24 22.79Q118.01 22.00 116.18 20.32Q114.35 18.64 114.35 15.87L114.35 15.87Q114.35 13.56 115.59 11.83Q116.83 10.11 118.99 9.15Q121.15 8.19 123.92 8.19L123.92 8.19Q126.74 8.19 128.84 9.16Q130.95 10.13 132.13 11.84Q133.30 13.56 133.34 15.80L133.34 15.80L128.30 15.80Q128.16 14.26 126.99 13.42Q125.82 12.59 123.87 12.59L123.87 12.59Q122.56 12.59 121.62 12.96Q120.68 13.34 120.18 14.00Q119.68 14.67 119.68 15.53L119.68 15.53Q119.68 16.47 120.26 17.09Q120.83 17.71 121.76 18.10Q122.69 18.48 123.77 18.74L123.77 18.74L126.08 19.30Q127.68 19.66 129.07 20.28Q130.45 20.89 131.49 21.79Q132.54 22.69 133.11 23.92Q133.68 25.15 133.68 26.75L133.68 26.75Q133.68 29.06 132.52 30.78Q131.36 32.50 129.15 33.44Q126.95 34.38 123.85 34.38ZM140.17 41.14L135.05 41.14L135.05 14.89L140.09 14.89L140.09 18.11L140.33 18.11Q140.69 17.35 141.34 16.55Q142.00 15.75 143.08 15.20Q144.15 14.65 145.78 14.65L145.78 14.65Q147.90 14.65 149.66 15.75Q151.42 16.84 152.47 19.03Q153.52 21.22 153.52 24.48L153.52 24.48Q153.52 27.66 152.49 29.86Q151.47 32.05 149.71 33.19Q147.95 34.32 145.74 34.32L145.74 34.32Q144.19 34.32 143.11 33.79Q142.04 33.27 141.36 32.49Q140.69 31.71 140.33 30.94L140.33 30.94L140.17 30.94L140.17 41.14ZM144.17 30.21L144.17 30.21Q145.51 30.21 146.42 29.47Q147.33 28.74 147.80 27.44Q148.27 26.14 148.27 24.46L148.27 24.46Q148.27 22.79 147.80 21.51Q147.33 20.23 146.43 19.49Q145.52 18.76 144.17 18.76L144.17 18.76Q142.86 18.76 141.93 19.47Q141.01 20.17 140.53 21.45Q140.05 22.72 140.05 24.46L140.05 24.46Q140.05 26.19 140.54 27.48Q141.03 28.77 141.95 29.49Q142.87 30.21 144.17 30.21ZM159.96 22.94L159.96 22.94L159.96 34L154.83 34L154.83 8.54L159.86 8.54L159.86 19.66L159.45 19.66Q160.20 17.27 161.73 15.96Q163.26 14.65 165.69 14.65L165.69 14.65Q167.67 14.65 169.15 15.52Q170.63 16.38 171.44 18.00Q172.25 19.61 172.25 21.85L172.25 21.85L172.25 34L167.12 34L167.12 22.74Q167.12 20.96 166.21 19.95Q165.29 18.94 163.67 18.94L163.67 18.94Q162.59 18.94 161.75 19.41Q160.90 19.88 160.43 20.77Q159.96 21.66 159.96 22.94ZM182.98 34.38L182.98 34.38Q180.06 34.38 177.94 33.18Q175.82 31.98 174.68 29.78Q173.55 27.57 173.55 24.55L173.55 24.55Q173.55 21.59 174.67 19.37Q175.80 17.15 177.87 15.90Q179.94 14.65 182.72 14.65L182.72 14.65Q184.60 14.65 186.23 15.25Q187.85 15.85 189.08 17.06Q190.31 18.26 191.00 20.07Q191.69 21.88 191.69 24.34L191.69 24.34L191.69 25.78L175.65 25.78L175.65 22.57L189.18 22.57L186.79 23.42Q186.79 21.93 186.34 20.83Q185.88 19.73 184.99 19.12Q184.09 18.52 182.76 18.52L182.76 18.52Q181.44 18.52 180.51 19.13Q179.58 19.75 179.10 20.80Q178.62 21.85 178.62 23.20L178.62 23.20L178.62 25.47Q178.62 27.13 179.18 28.26Q179.73 29.39 180.73 29.95Q181.73 30.51 183.06 30.51L183.06 30.51Q183.97 30.51 184.71 30.26Q185.44 30.00 185.96 29.50Q186.48 28.99 186.76 28.26L186.76 28.26L191.40 29.13Q190.94 30.70 189.80 31.89Q188.65 33.08 186.94 33.73Q185.22 34.38 182.98 34.38ZM198.05 34L192.92 34L192.92 14.89L197.88 14.89L197.88 18.23L198.08 18.23Q198.61 16.45 199.85 15.54Q201.09 14.64 202.70 14.64L202.70 14.64Q203.09 14.64 203.54 14.68Q204.00 14.72 204.36 14.81L204.36 14.81L204.36 19.39Q204.01 19.27 203.37 19.20Q202.72 19.13 202.13 19.13L202.13 19.13Q200.97 19.13 200.03 19.64Q199.09 20.14 198.57 21.04Q198.05 21.93 198.05 23.13L198.05 23.13L198.05 34ZM213.53 34.38L213.53 34.38Q210.61 34.38 208.49 33.18Q206.37 31.98 205.23 29.78Q204.10 27.57 204.10 24.55L204.10 24.55Q204.10 21.59 205.23 19.37Q206.35 17.15 208.42 15.90Q210.49 14.65 213.28 14.65L213.28 14.65Q215.16 14.65 216.78 15.25Q218.40 15.85 219.63 17.06Q220.86 18.26 221.56 20.07Q222.25 21.88 222.25 24.34L222.25 24.34L222.25 25.78L206.20 25.78L206.20 22.57L219.74 22.57L217.34 23.42Q217.34 21.93 216.89 20.83Q216.44 19.73 215.54 19.12Q214.64 18.52 213.31 18.52L213.31 18.52Q211.99 18.52 211.06 19.13Q210.13 19.75 209.65 20.80Q209.17 21.85 209.17 23.20L209.17 23.20L209.17 25.47Q209.17 27.13 209.73 28.26Q210.28 29.39 211.28 29.95Q212.28 30.51 213.62 30.51L213.62 30.51Q214.52 30.51 215.26 30.26Q215.99 30.00 216.51 29.50Q217.03 28.99 217.31 28.26L217.31 28.26L221.96 29.13Q221.50 30.70 220.35 31.89Q219.21 33.08 217.49 33.73Q215.77 34.38 213.53 34.38Z" fill="#7f57f1"></path></g>
        
      </svg>